<svg width="180" height="180" viewBox="0 0 180 180" fill="none" xmlns="http://www.w3.org/2000/svg">
<rect width="180" height="180" fill="url(#paint0_linear_349_2747)"/>
<path fill-rule="evenodd" clip-rule="evenodd" d="M61.1125 65.6742C64.8724 61.9632 69.8521 59.6999 75.1538 59.2923C80.4555 58.8847 85.7304 60.3596 90.0273 63.4512C94.5673 60.2099 100.177 58.773 105.741 59.426C111.306 60.079 116.417 62.7742 120.06 66.9758C123.703 71.1774 125.611 76.5777 125.404 82.1035C125.196 87.6292 122.89 92.8757 118.942 96.8002L97.9121 117.552C95.8207 119.615 92.9846 120.774 90.0273 120.774C87.0701 120.774 84.2339 119.615 82.1425 117.552L61.1125 96.8038C56.9299 92.6762 54.5801 87.078 54.5801 81.2409C54.5801 75.4037 56.9299 69.8019 61.1125 65.6742Z" fill="white"/>
<defs>
<linearGradient id="paint0_linear_349_2747" x1="-22.6452" y1="106.258" x2="164.903" y2="37.7419" gradientUnits="userSpaceOnUse">
<stop stop-color="#296265"/>
<stop offset="0.375" stop-color="#344A5C"/>
<stop offset="0.7" stop-color="#3F2F52"/>
<stop offset="1" stop-color="#471C4B"/>
</linearGradient>
</defs>
</svg>
