<svg width="878" height="656" viewBox="0 0 878 656" fill="none" xmlns="http://www.w3.org/2000/svg">
<path d="M-28.4058 125.923C-5.93773 93.8187 20.8004 69.5557 54.2691 63.1393C93.618 55.5957 121.685 83.9683 152.493 115.423C176.615 140.05 199.934 166.038 223.489 191.627C234.615 203.714 245.858 216.232 258.656 225.005C282.013 241.015 310.118 226.672 331.171 213.115C364.245 191.817 412.79 162.836 446.586 201.075C460.667 217.008 469.532 241.544 478.483 262.572C489.41 288.243 498.99 315.996 513.447 338.657C540.727 381.416 580.085 386.479 618.428 379.594C668.869 370.538 717.451 347.757 765.9 328.637C792.098 318.299 818.533 308.707 843.98 295.502" stroke="url(#paint0_linear_52_16)" stroke-width="5" stroke-linecap="round" stroke-dasharray="1 20"/>
<path d="M-24.0026 161.696C-1.53447 129.592 25.2037 105.329 58.6723 98.9127C98.0213 91.369 126.088 119.742 156.897 151.196C181.018 175.823 204.337 201.812 227.892 227.401C239.018 239.488 250.261 252.006 263.06 260.778C286.416 276.789 314.521 262.446 335.574 248.888C368.649 227.59 417.194 198.609 450.989 236.848C465.071 252.781 473.935 277.317 482.886 298.345C493.813 324.016 503.393 351.769 517.851 374.43C545.13 417.189 584.489 422.252 622.831 415.368C673.272 406.311 721.855 383.53 770.303 364.41C796.501 354.072 822.936 344.48 848.383 331.275" stroke="url(#paint1_linear_52_16)" stroke-width="5" stroke-linecap="round" stroke-dasharray="1 20"/>
<path d="M-31.9456 198.378C-9.47752 166.274 17.2606 142.011 50.7293 135.594C90.0782 128.051 118.145 156.423 148.954 187.878C173.075 212.504 196.394 238.493 219.949 264.082C231.075 276.169 242.318 288.687 255.117 297.46C278.473 313.47 306.578 299.127 327.631 285.57C360.706 264.271 409.251 235.291 443.046 273.53C457.128 289.463 465.992 313.999 474.943 335.026C485.87 360.698 495.45 388.451 509.908 411.112C537.187 453.87 576.545 458.934 614.888 452.049C665.329 442.992 713.912 420.212 762.36 401.092C788.558 390.753 814.993 381.161 840.44 367.957" stroke="url(#paint2_linear_52_16)" stroke-width="5" stroke-linecap="round" stroke-dasharray="1 20"/>
<path d="M-27.5344 234.151C-5.06627 202.046 21.6719 177.783 55.1405 171.367C94.4895 163.823 122.556 192.196 153.365 223.65C177.486 248.277 200.805 274.266 224.36 299.855C235.487 311.942 246.73 324.46 259.528 333.233C282.885 349.243 310.989 334.9 332.043 321.342C365.117 300.044 413.662 271.064 447.457 309.303C461.539 325.235 470.404 349.772 479.354 370.799C490.281 396.47 499.862 424.224 514.319 446.885C541.598 489.643 580.957 494.706 619.3 487.822C669.74 478.765 718.323 455.984 766.772 436.865C792.969 426.526 819.404 416.934 844.851 403.729" stroke="url(#paint3_linear_52_16)" stroke-width="5" stroke-linecap="round" stroke-dasharray="1 20"/>
<path d="M-23.1311 269.924C-0.663009 237.82 26.0751 213.557 59.5438 207.14C98.8928 199.597 126.959 227.969 157.768 259.424C181.889 284.051 205.208 310.039 228.764 335.628C239.89 347.715 251.133 360.233 263.931 369.006C287.288 385.016 315.393 370.673 336.446 357.116C369.52 335.818 418.065 306.837 451.861 345.076C465.942 361.009 474.807 385.545 483.757 406.573C494.685 432.244 504.265 459.997 518.722 482.658C546.002 525.417 585.36 530.48 623.703 523.595C674.143 514.539 722.726 491.758 771.175 472.638C797.372 462.3 823.808 452.708 849.254 439.503" stroke="url(#paint4_linear_52_16)" stroke-width="5" stroke-linecap="round" stroke-dasharray="1 20"/>
<path d="M-18.7278 305.697C3.74031 273.593 30.4784 249.33 63.9471 242.914C103.296 235.37 131.363 263.743 162.171 295.197C186.293 319.824 209.612 345.813 233.167 371.402C244.293 383.489 255.536 396.007 268.334 404.779C291.691 420.79 319.796 406.447 340.849 392.889C373.923 371.591 422.468 342.61 456.264 380.849C470.345 396.782 479.21 421.318 488.161 442.346C499.088 468.017 508.668 495.77 523.126 518.431C550.405 561.19 589.763 566.253 628.106 559.369C678.547 550.312 727.13 527.531 775.578 508.411C801.776 498.073 828.211 488.481 853.658 475.276" stroke="url(#paint5_linear_52_16)" stroke-width="5" stroke-linecap="round" stroke-dasharray="1 20"/>
<path d="M-14.3245 341.471C8.14357 309.366 34.8817 285.103 68.3504 278.687C107.699 271.143 135.766 299.516 166.575 330.97C190.696 355.597 214.015 381.586 237.57 407.175C248.696 419.262 259.939 431.78 272.738 440.553C296.094 456.563 324.199 442.22 345.252 428.663C378.327 407.364 426.872 378.384 460.667 416.623C474.749 432.556 483.613 457.092 492.564 478.119C503.491 503.791 513.071 531.544 527.529 554.205C554.808 596.963 594.167 602.027 632.509 595.142C682.95 586.085 731.533 563.305 779.981 544.185C806.179 533.846 832.614 524.254 858.061 511.05" stroke="url(#paint6_linear_52_16)" stroke-width="5" stroke-linecap="round" stroke-dasharray="1 20"/>
<defs>
<linearGradient id="paint0_linear_52_16" x1="109.107" y1="70.3461" x2="849.012" y2="260.366" gradientUnits="userSpaceOnUse">
<stop stop-color="white" stop-opacity="0.25"/>
<stop offset="0.92" stop-color="white" stop-opacity="0"/>
</linearGradient>
<linearGradient id="paint1_linear_52_16" x1="113.51" y1="106.119" x2="853.415" y2="296.139" gradientUnits="userSpaceOnUse">
<stop stop-color="white" stop-opacity="0.25"/>
<stop offset="0.92" stop-color="white" stop-opacity="0"/>
</linearGradient>
<linearGradient id="paint2_linear_52_16" x1="105.567" y1="142.801" x2="845.472" y2="332.82" gradientUnits="userSpaceOnUse">
<stop stop-color="white" stop-opacity="0.25"/>
<stop offset="0.92" stop-color="white" stop-opacity="0"/>
</linearGradient>
<linearGradient id="paint3_linear_52_16" x1="109.978" y1="178.574" x2="849.884" y2="368.593" gradientUnits="userSpaceOnUse">
<stop stop-color="white" stop-opacity="0.25"/>
<stop offset="0.92" stop-color="white" stop-opacity="0"/>
</linearGradient>
<linearGradient id="paint4_linear_52_16" x1="114.381" y1="214.347" x2="854.287" y2="404.367" gradientUnits="userSpaceOnUse">
<stop stop-color="white" stop-opacity="0.25"/>
<stop offset="0.92" stop-color="white" stop-opacity="0"/>
</linearGradient>
<linearGradient id="paint5_linear_52_16" x1="118.785" y1="250.12" x2="858.69" y2="440.14" gradientUnits="userSpaceOnUse">
<stop stop-color="white" stop-opacity="0.25"/>
<stop offset="0.92" stop-color="white" stop-opacity="0"/>
</linearGradient>
<linearGradient id="paint6_linear_52_16" x1="123.188" y1="285.894" x2="863.093" y2="475.913" gradientUnits="userSpaceOnUse">
<stop stop-color="white" stop-opacity="0.25"/>
<stop offset="0.92" stop-color="white" stop-opacity="0"/>
</linearGradient>
</defs>
</svg>
